<mxfile host="app.diagrams.net" agent="Mozilla/5.0 (Windows NT 10.0; Win64; x64) AppleWebKit/537.36 (KHTML, like Gecko) Chrome/127.0.0.0 Safari/537.36" version="24.7.7">
  <diagram name="PÃ¡gina-1" id="_UKwrg18cSNLmmd5d49G">
    <mxGraphModel grid="1" page="1" gridSize="10" guides="1" tooltips="1" connect="1" arrows="1" fold="1" pageScale="1" pageWidth="827" pageHeight="1169" background="none" math="0" shadow="0">
      <root>
        <mxCell id="0" />
        <mxCell id="1" parent="0" />
        <mxCell id="vkpoP3wVgDar7xZIkszc-1" value="AWS Cloud" style="points=[[0,0],[0.25,0],[0.5,0],[0.75,0],[1,0],[1,0.25],[1,0.5],[1,0.75],[1,1],[0.75,1],[0.5,1],[0.25,1],[0,1],[0,0.75],[0,0.5],[0,0.25]];outlineConnect=0;gradientColor=none;html=1;whiteSpace=wrap;fontSize=12;fontStyle=0;container=1;pointerEvents=0;collapsible=0;recursiveResize=0;shape=mxgraph.aws4.group;grIcon=mxgraph.aws4.group_aws_cloud_alt;strokeColor=#232F3E;fillColor=none;verticalAlign=top;align=left;spacingLeft=30;fontColor=#232F3E;dashed=0;" vertex="1" parent="1">
          <mxGeometry x="40" y="120" width="1560" height="1080" as="geometry" />
        </mxCell>
        <mxCell id="vkpoP3wVgDar7xZIkszc-2" value="&lt;font style=&quot;font-size: 20px;&quot;&gt;Internet&lt;/font&gt;" style="ellipse;shape=cloud;whiteSpace=wrap;html=1;" vertex="1" parent="1">
          <mxGeometry x="705" width="190" height="110" as="geometry" />
        </mxCell>
        <mxCell id="vkpoP3wVgDar7xZIkszc-3" value="&lt;font style=&quot;font-size: 16px;&quot;&gt;&lt;b&gt;Region&amp;nbsp;US East (N. Virginia) [us-east-1]&lt;/b&gt;&lt;/font&gt;" style="points=[[0,0],[0.25,0],[0.5,0],[0.75,0],[1,0],[1,0.25],[1,0.5],[1,0.75],[1,1],[0.75,1],[0.5,1],[0.25,1],[0,1],[0,0.75],[0,0.5],[0,0.25]];outlineConnect=0;gradientColor=none;html=1;whiteSpace=wrap;fontSize=12;fontStyle=0;container=1;pointerEvents=0;collapsible=0;recursiveResize=0;shape=mxgraph.aws4.group;grIcon=mxgraph.aws4.group_region;strokeColor=#00A4A6;fillColor=none;verticalAlign=top;align=left;spacingLeft=30;fontColor=#147EBA;dashed=1;" vertex="1" parent="1">
          <mxGeometry x="80" y="160" width="1480" height="1000" as="geometry" />
        </mxCell>
        <mxCell id="vkpoP3wVgDar7xZIkszc-14" value="&lt;font style=&quot;font-size: 16px;&quot;&gt;Public subnet -&amp;nbsp;10.0.3.0/24&lt;/font&gt;" style="points=[[0,0],[0.25,0],[0.5,0],[0.75,0],[1,0],[1,0.25],[1,0.5],[1,0.75],[1,1],[0.75,1],[0.5,1],[0.25,1],[0,1],[0,0.75],[0,0.5],[0,0.25]];outlineConnect=0;gradientColor=none;html=1;whiteSpace=wrap;fontSize=12;fontStyle=0;container=1;pointerEvents=0;collapsible=0;recursiveResize=0;shape=mxgraph.aws4.group;grIcon=mxgraph.aws4.group_security_group;grStroke=0;strokeColor=#7AA116;fillColor=#F2F6E8;verticalAlign=top;align=left;spacingLeft=30;fontColor=#248814;dashed=0;" vertex="1" parent="vkpoP3wVgDar7xZIkszc-3">
          <mxGeometry x="920" y="200" width="400" height="240" as="geometry" />
        </mxCell>
        <mxCell id="vkpoP3wVgDar7xZIkszc-26" value="" style="sketch=0;points=[[0,0,0],[0.25,0,0],[0.5,0,0],[0.75,0,0],[1,0,0],[0,1,0],[0.25,1,0],[0.5,1,0],[0.75,1,0],[1,1,0],[0,0.25,0],[0,0.5,0],[0,0.75,0],[1,0.25,0],[1,0.5,0],[1,0.75,0]];outlineConnect=0;fontColor=#232F3E;fillColor=#ED7100;strokeColor=#ffffff;dashed=0;verticalLabelPosition=bottom;verticalAlign=top;align=center;html=1;fontSize=12;fontStyle=0;aspect=fixed;shape=mxgraph.aws4.resourceIcon;resIcon=mxgraph.aws4.ec2;" vertex="1" parent="vkpoP3wVgDar7xZIkszc-14">
          <mxGeometry x="30" y="60" width="78" height="78" as="geometry" />
        </mxCell>
        <mxCell id="vkpoP3wVgDar7xZIkszc-7" value="&lt;font style=&quot;font-size: 16px;&quot;&gt;&lt;b&gt;Availability Zone&amp;nbsp;us-east-1b&lt;/b&gt;&lt;/font&gt;" style="fillColor=none;strokeColor=#147EBA;dashed=1;verticalAlign=top;fontStyle=0;fontColor=#147EBA;whiteSpace=wrap;html=1;movable=1;resizable=1;rotatable=1;deletable=1;editable=1;locked=0;connectable=1;" vertex="1" parent="vkpoP3wVgDar7xZIkszc-3">
          <mxGeometry x="880" y="40" width="480" height="720" as="geometry" />
        </mxCell>
        <mxCell id="vkpoP3wVgDar7xZIkszc-4" value="&lt;font style=&quot;font-size: 16px;&quot;&gt;&lt;b&gt;Availability Zone&amp;nbsp;us-east-1a&lt;/b&gt;&lt;/font&gt;" style="fillColor=none;strokeColor=#147EBA;dashed=1;verticalAlign=top;fontStyle=0;fontColor=#147EBA;whiteSpace=wrap;html=1;" vertex="1" parent="vkpoP3wVgDar7xZIkszc-3">
          <mxGeometry x="80" y="40" width="480" height="720" as="geometry" />
        </mxCell>
        <mxCell id="vkpoP3wVgDar7xZIkszc-8" value="&lt;font size=&quot;1&quot; style=&quot;&quot;&gt;&lt;b style=&quot;font-size: 20px;&quot;&gt;VPC -&amp;nbsp;10.0.0.0/16&lt;/b&gt;&lt;/font&gt;" style="points=[[0,0],[0.25,0],[0.5,0],[0.75,0],[1,0],[1,0.25],[1,0.5],[1,0.75],[1,1],[0.75,1],[0.5,1],[0.25,1],[0,1],[0,0.75],[0,0.5],[0,0.25]];outlineConnect=0;gradientColor=none;html=1;whiteSpace=wrap;fontSize=12;fontStyle=0;container=1;pointerEvents=0;collapsible=0;recursiveResize=0;shape=mxgraph.aws4.group;grIcon=mxgraph.aws4.group_vpc2;strokeColor=#8C4FFF;fillColor=none;verticalAlign=top;align=left;spacingLeft=30;fontColor=#AAB7B8;dashed=0;" vertex="1" parent="vkpoP3wVgDar7xZIkszc-3">
          <mxGeometry x="40" y="80" width="1360" height="720" as="geometry" />
        </mxCell>
        <mxCell id="vkpoP3wVgDar7xZIkszc-9" value="&lt;font style=&quot;font-size: 16px;&quot;&gt;Public subnet -10.0.1.0/24&amp;nbsp;&lt;/font&gt;" style="points=[[0,0],[0.25,0],[0.5,0],[0.75,0],[1,0],[1,0.25],[1,0.5],[1,0.75],[1,1],[0.75,1],[0.5,1],[0.25,1],[0,1],[0,0.75],[0,0.5],[0,0.25]];outlineConnect=0;gradientColor=none;html=1;whiteSpace=wrap;fontSize=12;fontStyle=0;container=1;pointerEvents=0;collapsible=0;recursiveResize=0;shape=mxgraph.aws4.group;grIcon=mxgraph.aws4.group_security_group;grStroke=0;strokeColor=#7AA116;fillColor=#F2F6E8;verticalAlign=top;align=left;spacingLeft=30;fontColor=#248814;dashed=0;" vertex="1" parent="vkpoP3wVgDar7xZIkszc-8">
          <mxGeometry x="80" y="120" width="400" height="240" as="geometry" />
        </mxCell>
        <mxCell id="vkpoP3wVgDar7xZIkszc-37" value="" style="sketch=0;points=[[0,0,0],[0.25,0,0],[0.5,0,0],[0.75,0,0],[1,0,0],[0,1,0],[0.25,1,0],[0.5,1,0],[0.75,1,0],[1,1,0],[0,0.25,0],[0,0.5,0],[0,0.75,0],[1,0.25,0],[1,0.5,0],[1,0.75,0]];outlineConnect=0;fontColor=#232F3E;fillColor=#ED7100;strokeColor=#ffffff;dashed=0;verticalLabelPosition=bottom;verticalAlign=top;align=center;html=1;fontSize=12;fontStyle=0;aspect=fixed;shape=mxgraph.aws4.resourceIcon;resIcon=mxgraph.aws4.ec2;" vertex="1" parent="vkpoP3wVgDar7xZIkszc-9">
          <mxGeometry x="70" y="61" width="78" height="78" as="geometry" />
        </mxCell>
        <mxCell id="vkpoP3wVgDar7xZIkszc-68" value="EC2" style="text;html=1;align=center;verticalAlign=middle;resizable=0;points=[];autosize=1;strokeColor=none;fillColor=none;fontSize=16;fontStyle=1" vertex="1" parent="vkpoP3wVgDar7xZIkszc-9">
          <mxGeometry x="84" y="150" width="50" height="30" as="geometry" />
        </mxCell>
        <mxCell id="vkpoP3wVgDar7xZIkszc-23" value="" style="sketch=0;points=[[0,0,0],[0.25,0,0],[0.5,0,0],[0.75,0,0],[1,0,0],[0,1,0],[0.25,1,0],[0.5,1,0],[0.75,1,0],[1,1,0],[0,0.25,0],[0,0.5,0],[0,0.75,0],[1,0.25,0],[1,0.5,0],[1,0.75,0]];outlineConnect=0;fontColor=#232F3E;fillColor=#ED7100;strokeColor=#ffffff;dashed=0;verticalLabelPosition=bottom;verticalAlign=top;align=center;html=1;fontSize=12;fontStyle=0;aspect=fixed;shape=mxgraph.aws4.resourceIcon;resIcon=mxgraph.aws4.auto_scaling2;" vertex="1" parent="vkpoP3wVgDar7xZIkszc-8">
          <mxGeometry x="641" y="300" width="78" height="78" as="geometry" />
        </mxCell>
        <mxCell id="vkpoP3wVgDar7xZIkszc-34" value="&lt;font style=&quot;font-size: 16px;&quot;&gt;Auto Scaling group&lt;/font&gt;" style="points=[[0,0],[0.25,0],[0.5,0],[0.75,0],[1,0],[1,0.25],[1,0.5],[1,0.75],[1,1],[0.75,1],[0.5,1],[0.25,1],[0,1],[0,0.75],[0,0.5],[0,0.25]];outlineConnect=0;gradientColor=none;html=1;whiteSpace=wrap;fontSize=12;fontStyle=0;container=1;pointerEvents=0;collapsible=0;recursiveResize=0;shape=mxgraph.aws4.groupCenter;grIcon=mxgraph.aws4.group_auto_scaling_group;grStroke=1;strokeColor=#D86613;fillColor=none;verticalAlign=top;align=center;fontColor=#D86613;dashed=1;spacingTop=25;" vertex="1" parent="vkpoP3wVgDar7xZIkszc-8">
          <mxGeometry x="250" y="160" width="860" height="120" as="geometry" />
        </mxCell>
        <mxCell id="vkpoP3wVgDar7xZIkszc-38" value="" style="sketch=0;points=[[0,0,0],[0.25,0,0],[0.5,0,0],[0.75,0,0],[1,0,0],[0,1,0],[0.25,1,0],[0.5,1,0],[0.75,1,0],[1,1,0],[0,0.25,0],[0,0.5,0],[0,0.75,0],[1,0.25,0],[1,0.5,0],[1,0.75,0]];outlineConnect=0;fontColor=#232F3E;fillColor=#ED7100;strokeColor=#ffffff;dashed=0;verticalLabelPosition=bottom;verticalAlign=top;align=center;html=1;fontSize=12;fontStyle=0;aspect=fixed;shape=mxgraph.aws4.resourceIcon;resIcon=mxgraph.aws4.ec2;" vertex="1" parent="vkpoP3wVgDar7xZIkszc-8">
          <mxGeometry x="1130" y="181" width="78" height="78" as="geometry" />
        </mxCell>
        <mxCell id="vkpoP3wVgDar7xZIkszc-48" value="" style="outlineConnect=0;dashed=0;verticalLabelPosition=bottom;verticalAlign=top;align=center;html=1;shape=mxgraph.aws3.router;fillColor=#F58536;gradientColor=none;" vertex="1" parent="vkpoP3wVgDar7xZIkszc-8">
          <mxGeometry x="645.5" y="48" width="69" height="72" as="geometry" />
        </mxCell>
        <mxCell id="vkpoP3wVgDar7xZIkszc-49" value="" style="edgeStyle=orthogonalEdgeStyle;html=1;endArrow=block;elbow=vertical;startArrow=block;startFill=1;endFill=1;strokeColor=#545B64;rounded=0;entryX=0.5;entryY=1;entryDx=0;entryDy=0;entryPerimeter=0;" edge="1" parent="vkpoP3wVgDar7xZIkszc-8" source="vkpoP3wVgDar7xZIkszc-34" target="vkpoP3wVgDar7xZIkszc-48">
          <mxGeometry width="100" relative="1" as="geometry">
            <mxPoint x="710" y="380" as="sourcePoint" />
            <mxPoint x="810" y="380" as="targetPoint" />
          </mxGeometry>
        </mxCell>
        <mxCell id="vkpoP3wVgDar7xZIkszc-64" value="EC2&amp;nbsp; Auto Scaling" style="text;html=1;align=center;verticalAlign=middle;resizable=0;points=[];autosize=1;strokeColor=none;fillColor=none;fontSize=16;fontStyle=1" vertex="1" parent="vkpoP3wVgDar7xZIkszc-8">
          <mxGeometry x="605" y="390" width="150" height="30" as="geometry" />
        </mxCell>
        <mxCell id="vkpoP3wVgDar7xZIkszc-65" value="Router" style="text;html=1;align=center;verticalAlign=middle;resizable=0;points=[];autosize=1;strokeColor=none;fillColor=none;fontSize=16;" vertex="1" parent="vkpoP3wVgDar7xZIkszc-8">
          <mxGeometry x="719" y="69" width="70" height="30" as="geometry" />
        </mxCell>
        <mxCell id="vkpoP3wVgDar7xZIkszc-72" value="EC2" style="text;html=1;align=center;verticalAlign=middle;resizable=0;points=[];autosize=1;strokeColor=none;fillColor=none;fontSize=16;fontStyle=1" vertex="1" parent="vkpoP3wVgDar7xZIkszc-8">
          <mxGeometry x="1144" y="270" width="50" height="30" as="geometry" />
        </mxCell>
        <mxCell id="vkpoP3wVgDar7xZIkszc-79" value="" style="sketch=0;points=[[0,0,0],[0.25,0,0],[0.5,0,0],[0.75,0,0],[1,0,0],[0,1,0],[0.25,1,0],[0.5,1,0],[0.75,1,0],[1,1,0],[0,0.25,0],[0,0.5,0],[0,0.75,0],[1,0.25,0],[1,0.5,0],[1,0.75,0]];outlineConnect=0;fontColor=#232F3E;fillColor=#ED7100;strokeColor=#ffffff;dashed=0;verticalLabelPosition=bottom;verticalAlign=top;align=center;html=1;fontSize=12;fontStyle=0;aspect=fixed;shape=mxgraph.aws4.resourceIcon;resIcon=mxgraph.aws4.elastic_load_balancing;" vertex="1" parent="vkpoP3wVgDar7xZIkszc-8">
          <mxGeometry x="641" y="440" width="78" height="78" as="geometry" />
        </mxCell>
        <mxCell id="vkpoP3wVgDar7xZIkszc-80" value="Elastic Load Balancing" style="text;html=1;align=center;verticalAlign=middle;resizable=0;points=[];autosize=1;strokeColor=none;fillColor=none;fontSize=16;fontStyle=1" vertex="1" parent="vkpoP3wVgDar7xZIkszc-8">
          <mxGeometry x="585" y="530" width="190" height="30" as="geometry" />
        </mxCell>
        <mxCell id="vkpoP3wVgDar7xZIkszc-11" value="&lt;font style=&quot;font-size: 16px;&quot;&gt;Private subnet -&amp;nbsp;10.0.2.0/24&lt;/font&gt;" style="points=[[0,0],[0.25,0],[0.5,0],[0.75,0],[1,0],[1,0.25],[1,0.5],[1,0.75],[1,1],[0.75,1],[0.5,1],[0.25,1],[0,1],[0,0.75],[0,0.5],[0,0.25]];outlineConnect=0;gradientColor=none;html=1;whiteSpace=wrap;fontSize=12;fontStyle=0;container=1;pointerEvents=0;collapsible=0;recursiveResize=0;shape=mxgraph.aws4.group;grIcon=mxgraph.aws4.group_security_group;grStroke=0;strokeColor=#00A4A6;fillColor=#E6F6F7;verticalAlign=top;align=left;spacingLeft=30;fontColor=#147EBA;dashed=0;" vertex="1" parent="vkpoP3wVgDar7xZIkszc-3">
          <mxGeometry x="120" y="480" width="400" height="240" as="geometry" />
        </mxCell>
        <mxCell id="vkpoP3wVgDar7xZIkszc-62" value="&lt;span id=&quot;docs-internal-guid-c3db9fad-7fff-17d9-92c7-9b7da81b772c&quot;&gt;&lt;span style=&quot;font-size: 16px; font-family: Montserrat, sans-serif; background-color: transparent; font-weight: 700; font-variant-numeric: normal; font-variant-east-asian: normal; font-variant-alternates: normal; font-variant-position: normal; vertical-align: baseline; white-space: pre-wrap;&quot;&gt;RDS para MySQL&lt;/span&gt;&lt;/span&gt;" style="text;html=1;align=center;verticalAlign=middle;resizable=0;points=[];autosize=1;strokeColor=none;fillColor=none;" vertex="1" parent="vkpoP3wVgDar7xZIkszc-11">
          <mxGeometry x="-11" y="160" width="160" height="30" as="geometry" />
        </mxCell>
        <mxCell id="KojXcRGUkB43x-2casjx-1" value="" style="sketch=0;points=[[0,0,0],[0.25,0,0],[0.5,0,0],[0.75,0,0],[1,0,0],[0,1,0],[0.25,1,0],[0.5,1,0],[0.75,1,0],[1,1,0],[0,0.25,0],[0,0.5,0],[0,0.75,0],[1,0.25,0],[1,0.5,0],[1,0.75,0]];outlineConnect=0;fontColor=#232F3E;fillColor=#C925D1;strokeColor=#ffffff;dashed=0;verticalLabelPosition=bottom;verticalAlign=top;align=center;html=1;fontSize=12;fontStyle=0;aspect=fixed;shape=mxgraph.aws4.resourceIcon;resIcon=mxgraph.aws4.rds;" vertex="1" parent="vkpoP3wVgDar7xZIkszc-11">
          <mxGeometry x="148" y="60" width="78" height="78" as="geometry" />
        </mxCell>
        <mxCell id="KojXcRGUkB43x-2casjx-2" value="&lt;span id=&quot;docs-internal-guid-c3db9fad-7fff-17d9-92c7-9b7da81b772c&quot;&gt;&lt;span style=&quot;font-size: 16px; font-family: Montserrat, sans-serif; background-color: transparent; font-weight: 700; font-variant-numeric: normal; font-variant-east-asian: normal; font-variant-alternates: normal; font-variant-position: normal; vertical-align: baseline; white-space: pre-wrap;&quot;&gt;RDS Replica para MySQL&lt;/span&gt;&lt;/span&gt;" style="text;html=1;align=center;verticalAlign=middle;resizable=0;points=[];autosize=1;strokeColor=none;fillColor=none;" vertex="1" parent="vkpoP3wVgDar7xZIkszc-11">
          <mxGeometry x="77" y="170" width="220" height="30" as="geometry" />
        </mxCell>
        <mxCell id="vkpoP3wVgDar7xZIkszc-15" value="&lt;font style=&quot;font-size: 16px;&quot;&gt;Private subnet -&amp;nbsp;10.0.4.0/24&lt;/font&gt;" style="points=[[0,0],[0.25,0],[0.5,0],[0.75,0],[1,0],[1,0.25],[1,0.5],[1,0.75],[1,1],[0.75,1],[0.5,1],[0.25,1],[0,1],[0,0.75],[0,0.5],[0,0.25]];outlineConnect=0;gradientColor=none;html=1;whiteSpace=wrap;fontSize=12;fontStyle=0;container=1;pointerEvents=0;collapsible=0;recursiveResize=0;shape=mxgraph.aws4.group;grIcon=mxgraph.aws4.group_security_group;grStroke=0;strokeColor=#00A4A6;fillColor=#E6F6F7;verticalAlign=top;align=left;spacingLeft=30;fontColor=#147EBA;dashed=0;" vertex="1" parent="vkpoP3wVgDar7xZIkszc-3">
          <mxGeometry x="920" y="480" width="400" height="240" as="geometry" />
        </mxCell>
        <mxCell id="vkpoP3wVgDar7xZIkszc-63" value="&lt;span id=&quot;docs-internal-guid-c3db9fad-7fff-17d9-92c7-9b7da81b772c&quot;&gt;&lt;span style=&quot;font-size: 16px; font-family: Montserrat, sans-serif; background-color: transparent; font-weight: 700; font-variant-numeric: normal; font-variant-east-asian: normal; font-variant-alternates: normal; font-variant-position: normal; vertical-align: baseline; white-space: pre-wrap;&quot;&gt;RDS para MySQL&lt;/span&gt;&lt;/span&gt;" style="text;html=1;align=center;verticalAlign=middle;resizable=0;points=[];autosize=1;strokeColor=none;fillColor=none;" vertex="1" parent="vkpoP3wVgDar7xZIkszc-15">
          <mxGeometry x="-11" y="160" width="160" height="30" as="geometry" />
        </mxCell>
        <mxCell id="KojXcRGUkB43x-2casjx-3" value="" style="sketch=0;points=[[0,0,0],[0.25,0,0],[0.5,0,0],[0.75,0,0],[1,0,0],[0,1,0],[0.25,1,0],[0.5,1,0],[0.75,1,0],[1,1,0],[0,0.25,0],[0,0.5,0],[0,0.75,0],[1,0.25,0],[1,0.5,0],[1,0.75,0]];outlineConnect=0;fontColor=#232F3E;fillColor=#C925D1;strokeColor=#ffffff;dashed=0;verticalLabelPosition=bottom;verticalAlign=top;align=center;html=1;fontSize=12;fontStyle=0;aspect=fixed;shape=mxgraph.aws4.resourceIcon;resIcon=mxgraph.aws4.rds;" vertex="1" parent="vkpoP3wVgDar7xZIkszc-15">
          <mxGeometry x="153" y="60" width="78" height="78" as="geometry" />
        </mxCell>
        <mxCell id="KojXcRGUkB43x-2casjx-4" value="&lt;span id=&quot;docs-internal-guid-c3db9fad-7fff-17d9-92c7-9b7da81b772c&quot;&gt;&lt;span style=&quot;font-size: 16px; font-family: Montserrat, sans-serif; background-color: transparent; font-weight: 700; font-variant-numeric: normal; font-variant-east-asian: normal; font-variant-alternates: normal; font-variant-position: normal; vertical-align: baseline; white-space: pre-wrap;&quot;&gt;RDS Replica para MySQL&lt;/span&gt;&lt;/span&gt;" style="text;html=1;align=center;verticalAlign=middle;resizable=0;points=[];autosize=1;strokeColor=none;fillColor=none;" vertex="1" parent="vkpoP3wVgDar7xZIkszc-15">
          <mxGeometry x="90" y="170" width="220" height="30" as="geometry" />
        </mxCell>
        <mxCell id="vkpoP3wVgDar7xZIkszc-24" value="" style="sketch=0;points=[[0,0,0],[0.25,0,0],[0.5,0,0],[0.75,0,0],[1,0,0],[0,1,0],[0.25,1,0],[0.5,1,0],[0.75,1,0],[1,1,0],[0,0.25,0],[0,0.5,0],[0,0.75,0],[1,0.25,0],[1,0.5,0],[1,0.75,0]];outlineConnect=0;fontColor=#232F3E;fillColor=#C925D1;strokeColor=#ffffff;dashed=0;verticalLabelPosition=bottom;verticalAlign=top;align=center;html=1;fontSize=12;fontStyle=0;aspect=fixed;shape=mxgraph.aws4.resourceIcon;resIcon=mxgraph.aws4.rds;" vertex="1" parent="vkpoP3wVgDar7xZIkszc-3">
          <mxGeometry x="150" y="540" width="78" height="78" as="geometry" />
        </mxCell>
        <mxCell id="vkpoP3wVgDar7xZIkszc-25" value="" style="sketch=0;points=[[0,0,0],[0.25,0,0],[0.5,0,0],[0.75,0,0],[1,0,0],[0,1,0],[0.25,1,0],[0.5,1,0],[0.75,1,0],[1,1,0],[0,0.25,0],[0,0.5,0],[0,0.75,0],[1,0.25,0],[1,0.5,0],[1,0.75,0]];outlineConnect=0;fontColor=#232F3E;fillColor=#C925D1;strokeColor=#ffffff;dashed=0;verticalLabelPosition=bottom;verticalAlign=top;align=center;html=1;fontSize=12;fontStyle=0;aspect=fixed;shape=mxgraph.aws4.resourceIcon;resIcon=mxgraph.aws4.rds;" vertex="1" parent="vkpoP3wVgDar7xZIkszc-3">
          <mxGeometry x="950" y="540" width="78" height="78" as="geometry" />
        </mxCell>
        <mxCell id="vkpoP3wVgDar7xZIkszc-33" value="" style="sketch=0;points=[[0,0,0],[0.25,0,0],[0.5,0,0],[0.75,0,0],[1,0,0],[0,1,0],[0.25,1,0],[0.5,1,0],[0.75,1,0],[1,1,0],[0,0.25,0],[0,0.5,0],[0,0.75,0],[1,0.25,0],[1,0.5,0],[1,0.75,0]];outlineConnect=0;fontColor=#232F3E;fillColor=#ED7100;strokeColor=#ffffff;dashed=0;verticalLabelPosition=bottom;verticalAlign=top;align=center;html=1;fontSize=12;fontStyle=0;aspect=fixed;shape=mxgraph.aws4.resourceIcon;resIcon=mxgraph.aws4.ec2;" vertex="1" parent="vkpoP3wVgDar7xZIkszc-3">
          <mxGeometry x="1050" y="260" width="78" height="78" as="geometry" />
        </mxCell>
        <mxCell id="vkpoP3wVgDar7xZIkszc-32" value="" style="sketch=0;points=[[0,0,0],[0.25,0,0],[0.5,0,0],[0.75,0,0],[1,0,0],[0,1,0],[0.25,1,0],[0.5,1,0],[0.75,1,0],[1,1,0],[0,0.25,0],[0,0.5,0],[0,0.75,0],[1,0.25,0],[1,0.5,0],[1,0.75,0]];outlineConnect=0;fontColor=#232F3E;fillColor=#ED7100;strokeColor=#ffffff;dashed=0;verticalLabelPosition=bottom;verticalAlign=top;align=center;html=1;fontSize=12;fontStyle=0;aspect=fixed;shape=mxgraph.aws4.resourceIcon;resIcon=mxgraph.aws4.ec2;" vertex="1" parent="vkpoP3wVgDar7xZIkszc-3">
          <mxGeometry x="410" y="260" width="78" height="78" as="geometry" />
        </mxCell>
        <mxCell id="vkpoP3wVgDar7xZIkszc-22" value="" style="sketch=0;points=[[0,0,0],[0.25,0,0],[0.5,0,0],[0.75,0,0],[1,0,0],[0,1,0],[0.25,1,0],[0.5,1,0],[0.75,1,0],[1,1,0],[0,0.25,0],[0,0.5,0],[0,0.75,0],[1,0.25,0],[1,0.5,0],[1,0.75,0]];outlineConnect=0;fontColor=#232F3E;fillColor=#ED7100;strokeColor=#ffffff;dashed=0;verticalLabelPosition=bottom;verticalAlign=top;align=center;html=1;fontSize=12;fontStyle=0;aspect=fixed;shape=mxgraph.aws4.resourceIcon;resIcon=mxgraph.aws4.ec2;" vertex="1" parent="vkpoP3wVgDar7xZIkszc-3">
          <mxGeometry x="310" y="260" width="78" height="78" as="geometry" />
        </mxCell>
        <mxCell id="vkpoP3wVgDar7xZIkszc-39" value="" style="sketch=0;points=[[0,0,0],[0.25,0,0],[0.5,0,0],[0.75,0,0],[1,0,0],[0,1,0],[0.25,1,0],[0.5,1,0],[0.75,1,0],[1,1,0],[0,0.25,0],[0,0.5,0],[0,0.75,0],[1,0.25,0],[1,0.5,0],[1,0.75,0]];outlineConnect=0;fontColor=#232F3E;fillColor=#8C4FFF;strokeColor=#ffffff;dashed=0;verticalLabelPosition=bottom;verticalAlign=top;align=center;html=1;fontSize=12;fontStyle=0;aspect=fixed;shape=mxgraph.aws4.resourceIcon;resIcon=mxgraph.aws4.cloudfront;" vertex="1" parent="vkpoP3wVgDar7xZIkszc-3">
          <mxGeometry x="36" y="838" width="78" height="78" as="geometry" />
        </mxCell>
        <mxCell id="vkpoP3wVgDar7xZIkszc-40" value="" style="sketch=0;points=[[0,0,0],[0.25,0,0],[0.5,0,0],[0.75,0,0],[1,0,0],[0,1,0],[0.25,1,0],[0.5,1,0],[0.75,1,0],[1,1,0],[0,0.25,0],[0,0.5,0],[0,0.75,0],[1,0.25,0],[1,0.5,0],[1,0.75,0]];outlineConnect=0;fontColor=#232F3E;fillColor=#8C4FFF;strokeColor=#ffffff;dashed=0;verticalLabelPosition=bottom;verticalAlign=top;align=center;html=1;fontSize=12;fontStyle=0;aspect=fixed;shape=mxgraph.aws4.resourceIcon;resIcon=mxgraph.aws4.route_53;" vertex="1" parent="vkpoP3wVgDar7xZIkszc-3">
          <mxGeometry x="196" y="840" width="78" height="78" as="geometry" />
        </mxCell>
        <mxCell id="vkpoP3wVgDar7xZIkszc-46" value="" style="sketch=0;points=[[0,0,0],[0.25,0,0],[0.5,0,0],[0.75,0,0],[1,0,0],[0,1,0],[0.25,1,0],[0.5,1,0],[0.75,1,0],[1,1,0],[0,0.25,0],[0,0.5,0],[0,0.75,0],[1,0.25,0],[1,0.5,0],[1,0.75,0]];outlineConnect=0;fontColor=#232F3E;fillColor=#ED7100;strokeColor=#ffffff;dashed=0;verticalLabelPosition=bottom;verticalAlign=top;align=center;html=1;fontSize=12;fontStyle=0;aspect=fixed;shape=mxgraph.aws4.resourceIcon;resIcon=mxgraph.aws4.lambda;" vertex="1" parent="vkpoP3wVgDar7xZIkszc-3">
          <mxGeometry x="521" y="838" width="78" height="78" as="geometry" />
        </mxCell>
        <mxCell id="vkpoP3wVgDar7xZIkszc-28" value="" style="outlineConnect=0;dashed=0;verticalLabelPosition=bottom;verticalAlign=top;align=center;html=1;shape=mxgraph.aws3.internet_gateway;fillColor=#F58534;gradientColor=none;" vertex="1" parent="vkpoP3wVgDar7xZIkszc-3">
          <mxGeometry x="685.5" y="28" width="69" height="72" as="geometry" />
        </mxCell>
        <mxCell id="vkpoP3wVgDar7xZIkszc-50" value="" style="edgeStyle=orthogonalEdgeStyle;html=1;endArrow=block;elbow=vertical;startArrow=block;startFill=1;endFill=1;strokeColor=#545B64;rounded=0;exitX=0.5;exitY=0;exitDx=0;exitDy=0;exitPerimeter=0;entryX=0.5;entryY=1;entryDx=0;entryDy=0;entryPerimeter=0;" edge="1" parent="vkpoP3wVgDar7xZIkszc-3" source="vkpoP3wVgDar7xZIkszc-48" target="vkpoP3wVgDar7xZIkszc-28">
          <mxGeometry width="100" relative="1" as="geometry">
            <mxPoint x="750" y="460" as="sourcePoint" />
            <mxPoint x="850" y="460" as="targetPoint" />
          </mxGeometry>
        </mxCell>
        <mxCell id="vkpoP3wVgDar7xZIkszc-47" value="" style="sketch=0;points=[[0,0,0],[0.25,0,0],[0.5,0,0],[0.75,0,0],[1,0,0],[0,1,0],[0.25,1,0],[0.5,1,0],[0.75,1,0],[1,1,0],[0,0.25,0],[0,0.5,0],[0,0.75,0],[1,0.25,0],[1,0.5,0],[1,0.75,0]];outlineConnect=0;fontColor=#232F3E;fillColor=#7AA116;strokeColor=#ffffff;dashed=0;verticalLabelPosition=bottom;verticalAlign=top;align=center;html=1;fontSize=12;fontStyle=0;aspect=fixed;shape=mxgraph.aws4.resourceIcon;resIcon=mxgraph.aws4.s3;" vertex="1" parent="vkpoP3wVgDar7xZIkszc-3">
          <mxGeometry x="361" y="840" width="78" height="78" as="geometry" />
        </mxCell>
        <mxCell id="vkpoP3wVgDar7xZIkszc-53" value="&lt;span id=&quot;docs-internal-guid-66478300-7fff-bf72-afec-f7ec0af0e4f7&quot;&gt;&lt;span style=&quot;font-size: 16px; font-family: Montserrat, sans-serif; background-color: transparent; font-weight: 700; font-variant-numeric: normal; font-variant-east-asian: normal; font-variant-alternates: normal; font-variant-position: normal; vertical-align: baseline; white-space: pre-wrap;&quot;&gt;CloudFront&lt;/span&gt;&lt;/span&gt;" style="text;html=1;align=center;verticalAlign=middle;resizable=0;points=[];autosize=1;strokeColor=none;fillColor=none;" vertex="1" parent="vkpoP3wVgDar7xZIkszc-3">
          <mxGeometry x="20" y="922" width="110" height="30" as="geometry" />
        </mxCell>
        <mxCell id="vkpoP3wVgDar7xZIkszc-54" value="&lt;span id=&quot;docs-internal-guid-660118d8-7fff-19b0-2f3c-9bd248f8fcbd&quot;&gt;&lt;span style=&quot;font-size: 16px; font-family: Montserrat, sans-serif; background-color: transparent; font-weight: 700; font-variant-numeric: normal; font-variant-east-asian: normal; font-variant-alternates: normal; font-variant-position: normal; vertical-align: baseline; white-space: pre-wrap;&quot;&gt;Route 53&lt;/span&gt;&lt;/span&gt;" style="text;html=1;align=center;verticalAlign=middle;resizable=0;points=[];autosize=1;strokeColor=none;fillColor=none;imageWidth=40;" vertex="1" parent="vkpoP3wVgDar7xZIkszc-3">
          <mxGeometry x="190" y="930" width="90" height="30" as="geometry" />
        </mxCell>
        <mxCell id="vkpoP3wVgDar7xZIkszc-55" value="&lt;b id=&quot;docs-internal-guid-a0d1cf38-7fff-1b38-3a37-d8f9a3135fd2&quot; style=&quot;font-weight:normal;&quot;&gt;&lt;span style=&quot;font-family: Montserrat, sans-serif; color: rgb(0, 0, 0); background-color: transparent; font-weight: 700; font-style: normal; font-variant: normal; text-decoration: none; vertical-align: baseline; white-space: pre-wrap;&quot;&gt;&lt;font style=&quot;font-size: 16px;&quot;&gt;Amazon S3&lt;/font&gt;&lt;/span&gt;&lt;/b&gt;" style="text;whiteSpace=wrap;html=1;align=center;" vertex="1" parent="vkpoP3wVgDar7xZIkszc-3">
          <mxGeometry x="375" y="918" width="50" height="40" as="geometry" />
        </mxCell>
        <mxCell id="vkpoP3wVgDar7xZIkszc-56" value="&lt;span id=&quot;docs-internal-guid-85fb2668-7fff-d046-6336-42d53b503317&quot;&gt;&lt;span style=&quot;font-size: 16px; font-family: Montserrat, sans-serif; background-color: transparent; font-weight: 700; font-variant-numeric: normal; font-variant-east-asian: normal; font-variant-alternates: normal; font-variant-position: normal; vertical-align: baseline; white-space: pre-wrap;&quot;&gt;Lambda&lt;/span&gt;&lt;/span&gt;" style="text;html=1;align=center;verticalAlign=middle;resizable=0;points=[];autosize=1;strokeColor=none;fillColor=none;" vertex="1" parent="vkpoP3wVgDar7xZIkszc-3">
          <mxGeometry x="520" y="916" width="80" height="30" as="geometry" />
        </mxCell>
        <mxCell id="vkpoP3wVgDar7xZIkszc-66" value="Internet&amp;nbsp;&lt;div&gt;Gateaway&lt;/div&gt;" style="text;html=1;align=center;verticalAlign=middle;resizable=0;points=[];autosize=1;strokeColor=none;fillColor=none;fontSize=16;" vertex="1" parent="vkpoP3wVgDar7xZIkszc-3">
          <mxGeometry x="754.5" y="20" width="100" height="50" as="geometry" />
        </mxCell>
        <mxCell id="vkpoP3wVgDar7xZIkszc-76" style="edgeStyle=orthogonalEdgeStyle;rounded=0;orthogonalLoop=1;jettySize=auto;html=1;exitX=0.5;exitY=1;exitDx=0;exitDy=0;exitPerimeter=0;entryX=0.5;entryY=0;entryDx=0;entryDy=0;entryPerimeter=0;" edge="1" parent="vkpoP3wVgDar7xZIkszc-3" source="vkpoP3wVgDar7xZIkszc-37" target="vkpoP3wVgDar7xZIkszc-24">
          <mxGeometry relative="1" as="geometry" />
        </mxCell>
        <mxCell id="vkpoP3wVgDar7xZIkszc-77" style="edgeStyle=orthogonalEdgeStyle;rounded=0;orthogonalLoop=1;jettySize=auto;html=1;exitX=0;exitY=1;exitDx=0;exitDy=0;entryX=1;entryY=0;entryDx=0;entryDy=0;entryPerimeter=0;" edge="1" parent="vkpoP3wVgDar7xZIkszc-3" source="vkpoP3wVgDar7xZIkszc-34" target="vkpoP3wVgDar7xZIkszc-24">
          <mxGeometry relative="1" as="geometry" />
        </mxCell>
        <mxCell id="vkpoP3wVgDar7xZIkszc-78" style="edgeStyle=orthogonalEdgeStyle;rounded=0;orthogonalLoop=1;jettySize=auto;html=1;exitX=0;exitY=1;exitDx=0;exitDy=0;exitPerimeter=0;entryX=1;entryY=0;entryDx=0;entryDy=0;entryPerimeter=0;" edge="1" parent="vkpoP3wVgDar7xZIkszc-3" source="vkpoP3wVgDar7xZIkszc-38" target="vkpoP3wVgDar7xZIkszc-25">
          <mxGeometry relative="1" as="geometry" />
        </mxCell>
        <mxCell id="vkpoP3wVgDar7xZIkszc-41" value="" style="sketch=0;points=[[0,0,0],[0.25,0,0],[0.5,0,0],[0.75,0,0],[1,0,0],[0,1,0],[0.25,1,0],[0.5,1,0],[0.75,1,0],[1,1,0],[0,0.25,0],[0,0.5,0],[0,0.75,0],[1,0.25,0],[1,0.5,0],[1,0.75,0]];outlineConnect=0;fontColor=#232F3E;fillColor=#7AA116;strokeColor=#ffffff;dashed=0;verticalLabelPosition=bottom;verticalAlign=top;align=center;html=1;fontSize=12;fontStyle=0;aspect=fixed;shape=mxgraph.aws4.resourceIcon;resIcon=mxgraph.aws4.cost_explorer;" vertex="1" parent="vkpoP3wVgDar7xZIkszc-3">
          <mxGeometry x="835" y="840" width="78" height="78" as="geometry" />
        </mxCell>
        <mxCell id="vkpoP3wVgDar7xZIkszc-42" value="" style="sketch=0;points=[[0,0,0],[0.25,0,0],[0.5,0,0],[0.75,0,0],[1,0,0],[0,1,0],[0.25,1,0],[0.5,1,0],[0.75,1,0],[1,1,0],[0,0.25,0],[0,0.5,0],[0,0.75,0],[1,0.25,0],[1,0.5,0],[1,0.75,0]];outlineConnect=0;fontColor=#232F3E;fillColor=#7AA116;strokeColor=#ffffff;dashed=0;verticalLabelPosition=bottom;verticalAlign=top;align=center;html=1;fontSize=12;fontStyle=0;aspect=fixed;shape=mxgraph.aws4.resourceIcon;resIcon=mxgraph.aws4.budgets_2;" vertex="1" parent="vkpoP3wVgDar7xZIkszc-3">
          <mxGeometry x="677" y="842" width="78" height="78" as="geometry" />
        </mxCell>
        <mxCell id="vkpoP3wVgDar7xZIkszc-43" value="" style="sketch=0;points=[[0,0,0],[0.25,0,0],[0.5,0,0],[0.75,0,0],[1,0,0],[0,1,0],[0.25,1,0],[0.5,1,0],[0.75,1,0],[1,1,0],[0,0.25,0],[0,0.5,0],[0,0.75,0],[1,0.25,0],[1,0.5,0],[1,0.75,0]];outlineConnect=0;fontColor=#232F3E;fillColor=#DD344C;strokeColor=#ffffff;dashed=0;verticalLabelPosition=bottom;verticalAlign=top;align=center;html=1;fontSize=12;fontStyle=0;aspect=fixed;shape=mxgraph.aws4.resourceIcon;resIcon=mxgraph.aws4.identity_and_access_management;" vertex="1" parent="vkpoP3wVgDar7xZIkszc-3">
          <mxGeometry x="1316" y="840" width="78" height="78" as="geometry" />
        </mxCell>
        <mxCell id="vkpoP3wVgDar7xZIkszc-44" value="" style="sketch=0;points=[[0,0,0],[0.25,0,0],[0.5,0,0],[0.75,0,0],[1,0,0],[0,1,0],[0.25,1,0],[0.5,1,0],[0.75,1,0],[1,1,0],[0,0.25,0],[0,0.5,0],[0,0.75,0],[1,0.25,0],[1,0.5,0],[1,0.75,0]];outlineConnect=0;fontColor=#232F3E;fillColor=#DD344C;strokeColor=#ffffff;dashed=0;verticalLabelPosition=bottom;verticalAlign=top;align=center;html=1;fontSize=12;fontStyle=0;aspect=fixed;shape=mxgraph.aws4.resourceIcon;resIcon=mxgraph.aws4.key_management_service;" vertex="1" parent="vkpoP3wVgDar7xZIkszc-3">
          <mxGeometry x="1165" y="842" width="78" height="78" as="geometry" />
        </mxCell>
        <mxCell id="vkpoP3wVgDar7xZIkszc-45" value="" style="sketch=0;points=[[0,0,0],[0.25,0,0],[0.5,0,0],[0.75,0,0],[1,0,0],[0,1,0],[0.25,1,0],[0.5,1,0],[0.75,1,0],[1,1,0],[0,0.25,0],[0,0.5,0],[0,0.75,0],[1,0.25,0],[1,0.5,0],[1,0.75,0]];outlineConnect=0;fontColor=#232F3E;fillColor=#DD344C;strokeColor=#ffffff;dashed=0;verticalLabelPosition=bottom;verticalAlign=top;align=center;html=1;fontSize=12;fontStyle=0;aspect=fixed;shape=mxgraph.aws4.resourceIcon;resIcon=mxgraph.aws4.cognito;" vertex="1" parent="vkpoP3wVgDar7xZIkszc-3">
          <mxGeometry x="995" y="842" width="78" height="78" as="geometry" />
        </mxCell>
        <mxCell id="vkpoP3wVgDar7xZIkszc-57" value="&lt;b id=&quot;docs-internal-guid-73da0bb5-7fff-5b58-720f-df94a266180c&quot; style=&quot;font-weight: normal; font-size: 16px;&quot;&gt;&lt;span style=&quot;font-size: 16px; font-family: Montserrat, sans-serif; color: rgb(0, 0, 0); background-color: transparent; font-weight: 700; font-style: normal; font-variant: normal; text-decoration: none; vertical-align: baseline; white-space: pre-wrap;&quot;&gt;Budgets&lt;/span&gt;&lt;/b&gt;" style="text;whiteSpace=wrap;html=1;fontSize=16;align=center;" vertex="1" parent="vkpoP3wVgDar7xZIkszc-3">
          <mxGeometry x="671" y="920" width="90" height="40" as="geometry" />
        </mxCell>
        <mxCell id="vkpoP3wVgDar7xZIkszc-58" value="&lt;span id=&quot;docs-internal-guid-0121a00e-7fff-a6a2-6447-d0ba2134934f&quot;&gt;&lt;span style=&quot;font-size: 16px; font-family: Montserrat, sans-serif; background-color: transparent; font-weight: 700; font-variant-numeric: normal; font-variant-east-asian: normal; font-variant-alternates: normal; font-variant-position: normal; vertical-align: baseline; white-space: pre-wrap;&quot;&gt;Cost Explorer&lt;/span&gt;&lt;/span&gt;" style="text;html=1;align=center;verticalAlign=middle;resizable=0;points=[];autosize=1;strokeColor=none;fillColor=none;" vertex="1" parent="vkpoP3wVgDar7xZIkszc-3">
          <mxGeometry x="809" y="925" width="130" height="30" as="geometry" />
        </mxCell>
        <mxCell id="vkpoP3wVgDar7xZIkszc-59" value="&lt;b id=&quot;docs-internal-guid-65e54545-7fff-3ce7-1067-82919c333a15&quot; style=&quot;font-weight: normal; font-size: 16px;&quot;&gt;&lt;span style=&quot;font-size: 16px; font-family: Montserrat, sans-serif; color: rgb(0, 0, 0); background-color: transparent; font-weight: 700; font-style: normal; font-variant: normal; text-decoration: none; vertical-align: baseline; white-space: pre-wrap;&quot;&gt;Cognito &lt;/span&gt;&lt;/b&gt;" style="text;whiteSpace=wrap;html=1;fontSize=16;align=center;" vertex="1" parent="vkpoP3wVgDar7xZIkszc-3">
          <mxGeometry x="989" y="920" width="90" height="40" as="geometry" />
        </mxCell>
        <mxCell id="vkpoP3wVgDar7xZIkszc-60" value="&lt;span id=&quot;docs-internal-guid-50a7e20a-7fff-7c18-26f9-c2f1898a0215&quot;&gt;&lt;span style=&quot;font-size: 16px; font-family: Montserrat, sans-serif; background-color: transparent; font-weight: 700; font-variant-numeric: normal; font-variant-east-asian: normal; font-variant-alternates: normal; font-variant-position: normal; vertical-align: baseline; white-space: pre-wrap;&quot;&gt;Key Management Service (KMS)&lt;/span&gt;&lt;/span&gt;" style="text;html=1;align=center;verticalAlign=middle;resizable=0;points=[];autosize=1;strokeColor=none;fillColor=none;" vertex="1" parent="vkpoP3wVgDar7xZIkszc-3">
          <mxGeometry x="1069" y="942" width="270" height="30" as="geometry" />
        </mxCell>
        <mxCell id="vkpoP3wVgDar7xZIkszc-61" value="&lt;span id=&quot;docs-internal-guid-1cc92a2b-7fff-bb2e-0483-00442a017cd0&quot;&gt;&lt;span style=&quot;font-size: 16px; font-family: Montserrat, sans-serif; background-color: transparent; font-weight: 700; font-variant-numeric: normal; font-variant-east-asian: normal; font-variant-alternates: normal; font-variant-position: normal; vertical-align: baseline; white-space: pre-wrap;&quot;&gt;AWS IAM&lt;/span&gt;&lt;/span&gt;" style="text;html=1;align=center;verticalAlign=middle;resizable=0;points=[];autosize=1;strokeColor=none;fillColor=none;" vertex="1" parent="vkpoP3wVgDar7xZIkszc-3">
          <mxGeometry x="1310" y="930" width="90" height="30" as="geometry" />
        </mxCell>
        <mxCell id="vkpoP3wVgDar7xZIkszc-51" value="" style="edgeStyle=orthogonalEdgeStyle;html=1;endArrow=block;elbow=vertical;startArrow=block;startFill=1;endFill=1;strokeColor=#545B64;rounded=0;entryX=0.5;entryY=0;entryDx=0;entryDy=0;entryPerimeter=0;exitX=0.55;exitY=0.95;exitDx=0;exitDy=0;exitPerimeter=0;" edge="1" parent="1" source="vkpoP3wVgDar7xZIkszc-2" target="vkpoP3wVgDar7xZIkszc-28">
          <mxGeometry width="100" relative="1" as="geometry">
            <mxPoint x="830" y="620" as="sourcePoint" />
            <mxPoint x="930" y="620" as="targetPoint" />
          </mxGeometry>
        </mxCell>
      </root>
    </mxGraphModel>
  </diagram>
</mxfile>
